HIERARCHY
ROOT Hips
{
	OFFSET 0.000000 100.481300 0.000000
	CHANNELS 6 Xposition Yposition Zposition Xrotation Yrotation Zrotation
	JOINT Spine
	{
		OFFSET -0.279200 12.230698 -2.892100
		CHANNELS 3 Xrotation Yrotation Zrotation
		JOINT Spine1
		{
			OFFSET -0.325700 14.269203 -3.374200
			CHANNELS 3 Xrotation Yrotation Zrotation
			JOINT Spine2
			{
				OFFSET -0.372300 16.307602 -0.352600
				CHANNELS 3 Xrotation Yrotation Zrotation
				JOINT Neck
				{
					OFFSET -0.418800 17.814194 8.416900
					CHANNELS 3 Xrotation Yrotation Zrotation
					JOINT Head
					{
						OFFSET 0.000000 7.031097 3.806800
						CHANNELS 3 Xrotation Yrotation Zrotation
						JOINT HeadTop_End
						{
							OFFSET 0.000000 24.646606 12.978600
							CHANNELS 3 Xrotation Yrotation Zrotation
							End Site
							{
								OFFSET 0.000000 27.854965 0.000000
							}
						}
					}
				}
				JOINT LeftShoulder
				{
					OFFSET 16.952999 14.495407 -7.737500
					CHANNELS 3 Xrotation Yrotation Zrotation
					JOINT LeftArm
					{
						OFFSET 9.308998 -2.777710 0.208600
						CHANNELS 3 Xrotation Yrotation Zrotation
						JOINT LeftForeArm
						{
							OFFSET 29.972298 0.000000 0.000000
							CHANNELS 3 Xrotation Yrotation Zrotation
							JOINT LeftHand
							{
								OFFSET 26.026505 0.000000 0.000000
								CHANNELS 3 Xrotation Yrotation Zrotation
								JOINT LeftHandThumb1
								{
									OFFSET 12.240501 -7.147949 9.207150
									CHANNELS 3 Xrotation Yrotation Zrotation
									JOINT LeftHandThumb2
									{
										OFFSET 4.138618 -2.389435 2.389433
										CHANNELS 3 Xrotation Yrotation Zrotation
										JOINT LeftHandThumb3
										{
											OFFSET 2.726913 -1.574387 1.574386
											CHANNELS 3 Xrotation Yrotation Zrotation
											JOINT LeftHandThumb4
											{
												OFFSET 3.941010 -2.275345 2.275342
												CHANNELS 3 Xrotation Yrotation Zrotation
												End Site
												{
													OFFSET -0.005798 5.087799 0.009903
												}
											}
										}
									}
								}
								JOINT LeftHandIndex1
								{
									OFFSET 24.424698 -1.985611 5.953459
									CHANNELS 3 Xrotation Yrotation Zrotation
									JOINT LeftHandIndex2
									{
										OFFSET 6.426697 0.000000 0.000000
										CHANNELS 3 Xrotation Yrotation Zrotation
										JOINT LeftHandIndex3
										{
											OFFSET 5.337898 0.000000 0.000000
											CHANNELS 3 Xrotation Yrotation Zrotation
											JOINT LeftHandIndex4
											{
												OFFSET 4.409401 0.000000 0.000000
												CHANNELS 3 Xrotation Yrotation Zrotation
												End Site
												{
													OFFSET 0.000000 4.409363 0.014373
												}
											}
										}
									}
								}
								JOINT LeftHandMiddle1
								{
									OFFSET 23.810104 0.000000 0.000000
									CHANNELS 3 Xrotation Yrotation Zrotation
									JOINT LeftHandMiddle2
									{
										OFFSET 7.176498 0.000000 0.000000
										CHANNELS 3 Xrotation Yrotation Zrotation
										JOINT LeftHandMiddle3
										{
											OFFSET 6.774902 0.000000 0.000000
											CHANNELS 3 Xrotation Yrotation Zrotation
											JOINT LeftHandMiddle4
											{
												OFFSET 5.403328 0.000000 0.000000
												CHANNELS 3 Xrotation Yrotation Zrotation
												End Site
												{
													OFFSET -0.027702 5.403244 0.017414
												}
											}
										}
									}
								}
								JOINT LeftHandRing1
								{
									OFFSET 22.908401 -0.839279 -6.020567
									CHANNELS 3 Xrotation Yrotation Zrotation
									JOINT LeftHandRing2
									{
										OFFSET 6.337502 0.000000 0.000000
										CHANNELS 3 Xrotation Yrotation Zrotation
										JOINT LeftHandRing3
										{
											OFFSET 5.779297 0.000000 0.000000
											CHANNELS 3 Xrotation Yrotation Zrotation
											JOINT LeftHandRing4
											{
												OFFSET 4.965698 0.000000 0.000000
												CHANNELS 3 Xrotation Yrotation Zrotation
												End Site
												{
													OFFSET 0.000000 4.965668 0.016186
												}
											}
										}
									}
								}
								JOINT LeftHandPinky1
								{
									OFFSET 20.037003 -1.530319 -10.950146
									CHANNELS 3 Xrotation Yrotation Zrotation
									JOINT LeftHandPinky2
									{
										OFFSET 5.254700 0.000000 0.000000
										CHANNELS 3 Xrotation Yrotation Zrotation
										JOINT LeftHandPinky3
										{
											OFFSET 4.810204 0.000000 0.000000
											CHANNELS 3 Xrotation Yrotation Zrotation
											JOINT LeftHandPinky4
											{
												OFFSET 3.647202 0.000000 0.000000
												CHANNELS 3 Xrotation Yrotation Zrotation
												End Site
												{
													OFFSET 0.000000 3.647186 0.011889
												}
											}
										}
									}
								}
							}
						}
					}
				}
				JOINT RightShoulder
				{
					OFFSET -15.141001 14.495407 -7.737500
					CHANNELS 3 Xrotation Yrotation Zrotation
					JOINT RightArm
					{
						OFFSET -9.308998 -2.777710 0.208500
						CHANNELS 3 Xrotation Yrotation Zrotation
						JOINT RightForeArm
						{
							OFFSET -29.972300 0.000000 0.000000
							CHANNELS 3 Xrotation Yrotation Zrotation
							JOINT RightHand
							{
								OFFSET -26.026505 0.000000 0.000000
								CHANNELS 3 Xrotation Yrotation Zrotation
								JOINT RightHandThumb1
								{
									OFFSET -12.240601 -7.148026 9.207092
									CHANNELS 3 Xrotation Yrotation Zrotation
									JOINT RightHandThumb2
									{
										OFFSET -4.138618 -2.389435 2.389433
										CHANNELS 3 Xrotation Yrotation Zrotation
										JOINT RightHandThumb3
										{
											OFFSET -2.726974 -1.574417 1.574421
											CHANNELS 3 Xrotation Yrotation Zrotation
											JOINT RightHandThumb4
											{
												OFFSET -3.941010 -2.275345 2.275343
												CHANNELS 3 Xrotation Yrotation Zrotation
												End Site
												{
													OFFSET 0.005814 5.087799 0.009927
												}
											}
										}
									}
								}
								JOINT RightHandIndex1
								{
									OFFSET -24.424698 -1.985657 5.953444
									CHANNELS 3 Xrotation Yrotation Zrotation
									JOINT RightHandIndex2
									{
										OFFSET -6.426697 0.000000 0.000000
										CHANNELS 3 Xrotation Yrotation Zrotation
										JOINT RightHandIndex3
										{
											OFFSET -5.337898 0.000000 0.000000
											CHANNELS 3 Xrotation Yrotation Zrotation
											JOINT RightHandIndex4
											{
												OFFSET -4.409401 0.000000 0.000000
												CHANNELS 3 Xrotation Yrotation Zrotation
												End Site
												{
													OFFSET 0.000000 4.409363 0.014408
												}
											}
										}
									}
								}
								JOINT RightHandMiddle1
								{
									OFFSET -23.810097 0.000000 0.000000
									CHANNELS 3 Xrotation Yrotation Zrotation
									JOINT RightHandMiddle2
									{
										OFFSET -7.176498 0.000000 0.000000
										CHANNELS 3 Xrotation Yrotation Zrotation
										JOINT RightHandMiddle3
										{
											OFFSET -6.774902 0.000000 0.000000
											CHANNELS 3 Xrotation Yrotation Zrotation
											JOINT RightHandMiddle4
											{
												OFFSET -5.403328 0.000000 0.000000
												CHANNELS 3 Xrotation Yrotation Zrotation
												End Site
												{
													OFFSET 0.027702 5.403244 0.017457
												}
											}
										}
									}
								}
								JOINT RightHandRing1
								{
									OFFSET -22.908302 -0.839325 -6.020576
									CHANNELS 3 Xrotation Yrotation Zrotation
									JOINT RightHandRing2
									{
										OFFSET -6.337502 0.000000 0.000000
										CHANNELS 3 Xrotation Yrotation Zrotation
										JOINT RightHandRing3
										{
											OFFSET -5.779297 0.000000 0.000000
											CHANNELS 3 Xrotation Yrotation Zrotation
											JOINT RightHandRing4
											{
												OFFSET -4.965698 0.000000 0.000000
												CHANNELS 3 Xrotation Yrotation Zrotation
												End Site
												{
													OFFSET 0.000000 4.965668 0.016226
												}
											}
										}
									}
								}
								JOINT RightHandPinky1
								{
									OFFSET -20.037003 -1.530334 -10.950259
									CHANNELS 3 Xrotation Yrotation Zrotation
									JOINT RightHandPinky2
									{
										OFFSET -5.254700 0.000000 0.000000
										CHANNELS 3 Xrotation Yrotation Zrotation
										JOINT RightHandPinky3
										{
											OFFSET -4.810204 0.000000 0.000000
											CHANNELS 3 Xrotation Yrotation Zrotation
											JOINT RightHandPinky4
											{
												OFFSET -3.647202 0.000000 0.000000
												CHANNELS 3 Xrotation Yrotation Zrotation
												End Site
												{
													OFFSET 0.000000 3.647186 0.011917
												}
											}
										}
									}
								}
							}
						}
					}
				}
			}
		}
	}
	JOINT LeftUpLeg
	{
		OFFSET 15.427100 -6.655098 0.678600
		CHANNELS 3 Xrotation Yrotation Zrotation
		JOINT LeftLeg
		{
			OFFSET 4.081073 -39.591068 13.024000
			CHANNELS 3 Xrotation Yrotation Zrotation
			JOINT LeftFoot
			{
				OFFSET -4.081074 -37.707932 -15.979700
				CHANNELS 3 Xrotation Yrotation Zrotation
				JOINT LeftToeBase
				{
					OFFSET 5.346399 -15.068900 20.645000
					CHANNELS 3 Xrotation Yrotation Zrotation
					JOINT LeftToe_End
					{
						OFFSET 2.754700 0.931300 11.300900
						CHANNELS 3 Xrotation Yrotation Zrotation
						End Site
						{
							OFFSET 0.000000 11.669021 0.000000
						}
					}
				}
			}
		}
	}
	JOINT RightUpLeg
	{
		OFFSET -15.569500 -6.655098 0.678600
		CHANNELS 3 Xrotation Yrotation Zrotation
		JOINT RightLeg
		{
			OFFSET -4.081825 -39.591045 13.023800
			CHANNELS 3 Xrotation Yrotation Zrotation
			JOINT RightFoot
			{
				OFFSET 4.081824 -37.707954 -15.979600
				CHANNELS 3 Xrotation Yrotation Zrotation
				JOINT RightToeBase
				{
					OFFSET -5.346400 -15.068900 20.645000
					CHANNELS 3 Xrotation Yrotation Zrotation
					JOINT RightToe_End
					{
						OFFSET -2.754700 0.931300 11.300900
						CHANNELS 3 Xrotation Yrotation Zrotation
						End Site
						{
							OFFSET 0.000000 11.669021 0.000000
						}
					}
				}
			}
		}
	}
}
MOTION
Frames: 4
Frame Time: 0.033333
-2.078000 64.729546 -0.708935 17.154647 21.390225 0.921074 11.289221 -17.227511 10.278176 2.869504 -4.087947 0.126402 2.861627 -4.312291 0.311446 -0.686702 2.356467 -4.369682 -6.951684 9.339165 -11.100635 -0.000001 0.000000 -0.000000 2.870340 -11.957091 6.152309 -33.803675 -70.877556 -6.927817 -0.000370 -94.709575 -0.000362 15.904408 -20.838185 11.426094 -14.374019 -24.771110 -3.357601 9.920186 43.708877 4.996016 -9.012745 -8.993961 12.231289 0.000002 -0.000002 -0.000000 0.614965 5.226351 -14.494952 0.212946 1.566678 -15.479603 0.212818 1.566224 -15.474962 0.000001 0.000000 -0.000005 1.835604 6.790029 -33.465236 1.023787 3.310337 -34.362443 1.141459 3.475886 -36.350424 -0.000000 0.000000 0.000000 2.746534 7.472761 -44.480012 1.527759 3.946337 -42.313193 1.667313 4.094012 -44.303578 0.000001 -0.000002 0.000001 3.725300 7.962773 -54.775153 2.215617 4.587672 -51.537995 2.214910 4.587116 -51.529184 -0.000000 -0.000001 0.000001 1.124712 1.331170 15.116527 -9.590830 -31.513205 40.008407 0.000003 10.721314 0.000012 16.783639 19.030295 -20.612589 -6.394899 8.753159 -2.624491 8.233935 -29.439061 -1.700683 -7.568537 8.340474 -10.032338 0.000001 0.000000 -0.000002 -1.782492 6.485232 11.713591 0.189244 -1.315434 16.372455 0.199575 -1.350088 16.816595 0.000000 -0.000004 -0.000000 -1.298717 1.214692 17.888052 0.309493 -1.671014 20.984597 0.372139 -1.825904 23.037354 0.000001 -0.000000 -0.000001 -0.118577 -2.982249 25.427655 0.399947 -1.889944 23.895410 0.468789 -2.038158 25.903631 0.000001 -0.000002 -0.000001 0.003124 -3.566932 32.442080 0.622463 -2.327945 29.936139 0.622132 -2.327380 29.928298 -0.000000 0.000000 0.000001 26.062626 5.836188 -4.482833 33.950528 6.450851 -11.583544 -38.370715 19.891558 -14.066197 -42.282395 -0.000006 -0.000007 0.000001 0.000001 -0.000000 -88.385530 1.978773 -2.724493 44.370620 -11.621920 -0.258377 21.286884 -26.721377 -10.762676 -4.481204 0.000012 -0.000002 0.000000 -0.000000 -0.000000 
-0.303181 64.325409 1.301666 20.347052 20.047252 -0.967393 12.061518 -16.632600 12.212562 2.811436 -3.985555 0.795341 2.773599 -4.182985 0.970418 -0.681614 2.365240 -4.507586 -7.572692 9.172020 -10.083090 0.000000 -0.000000 -0.000000 2.735322 -12.696718 4.346267 -34.108346 -64.082016 -9.625583 -0.000528 -94.870986 -0.000545 21.000579 -20.614976 15.573986 -13.662086 -24.113749 -2.888315 9.854742 42.794656 4.956238 -9.051032 -8.964073 12.249506 -0.000001 0.000000 0.000001 0.554764 4.983627 -14.096283 0.225864 1.612583 -15.945264 0.225736 1.612142 -15.940760 -0.000000 0.000001 0.000001 1.521963 6.335732 -32.899379 1.009251 3.289011 -34.109968 1.092092 3.407919 -35.528165 0.000000 0.000001 -0.000000 2.681456 7.432141 -43.748635 1.488892 3.903310 -41.745365 1.613637 4.038427 -43.546650 -0.000001 -0.000000 0.000002 3.820823 8.175273 -53.826494 2.153110 4.537483 -50.752284 2.152428 4.536925 -50.743750 -0.000000 0.000000 -0.000000 1.043139 2.631134 15.718828 -10.288655 -30.114987 39.289560 0.000007 12.166540 0.000005 13.583260 14.557015 -20.779377 -6.148991 8.608478 -2.677341 8.227312 -29.103924 -1.757273 -7.586219 8.188780 -10.140897 0.000000 0.000001 -0.000000 -1.721461 6.411248 11.448790 0.197266 -1.342434 16.718397 0.207548 -1.376197 17.151963 -0.000000 0.000000 -0.000000 -1.282992 1.192875 17.793324 0.313035 -1.680239 21.105865 0.361787 -1.801386 22.710333 -0.000000 -0.000003 0.000001 -0.091102 -3.032638 25.292841 0.399953 -1.889951 23.895383 0.463306 -2.026821 25.748838 0.000001 0.000000 -0.000000 0.098741 -3.842833 32.204175 0.618377 -2.320845 29.835550 0.618075 -2.320307 29.827928 0.000002 0.000002 -0.000001 23.673402 4.755418 -3.365724 34.849227 5.983148 -11.755646 -32.416443 22.338419 -17.179389 -39.367851 0.000001 0.000006 0.000000 0.000002 -0.000000 -91.822317 1.427790 -2.120645 47.358933 -11.095904 -0.206187 19.447686 -26.464995 -9.552853 -4.499167 0.000006 -0.000006 -0.000000 -0.000001 -0.000000 
1.408653 63.923241 3.133526 23.649837 18.533641 -3.032511 12.774374 -16.008159 14.263768 2.742644 -3.889225 1.510311 2.673449 -4.057030 1.674792 -0.669624 2.364474 -4.613853 -8.263983 8.928772 -8.872349 -0.000001 -0.000000 0.000000 2.547794 -13.544107 2.497568 -34.255379 -56.841080 -11.793637 0.000216 -95.211348 0.000177 26.361904 -19.778809 19.738652 -12.943118 -23.432888 -2.423572 9.787068 41.857015 4.915460 -9.090304 -8.933456 12.268220 -0.000000 -0.000000 -0.000001 0.496357 4.733955 -13.687864 0.239500 1.659549 -16.422889 0.239370 1.659120 -16.418527 0.000000 0.000000 -0.000001 1.201026 5.850207 -32.323266 0.994446 3.267081 -33.850967 1.042486 3.337469 -34.684968 0.000001 -0.000000 0.000000 2.615259 7.389619 -42.998657 1.449475 3.858794 -41.163026 1.559356 3.980685 -42.770423 0.000000 0.000000 -0.000000 3.910802 8.397956 -52.852584 2.089733 4.485116 -49.946557 2.089083 4.484575 -49.938283 0.000000 0.000000 -0.000003 0.925081 4.088305 16.362705 -10.959854 -28.739244 38.589725 0.000008 13.633011 0.000005 10.001642 9.913599 -21.408535 -5.896507 8.461576 -2.731205 8.220512 -28.761954 -1.814258 -7.604355 8.034049 -10.251722 -0.000000 -0.000001 0.000002 -1.654213 6.336472 11.177911 0.205624 -1.369941 17.071549 0.215849 -1.402813 17.494331 -0.000002 0.000000 -0.000000 -1.267041 1.170629 17.696595 0.316688 -1.689638 21.229743 0.351366 -1.776291 22.376507 -0.000002 0.000001 0.000001 -0.063302 -3.084230 25.155232 0.399962 -1.889980 23.895775 0.457725 -2.015234 25.590805 0.000001 0.000002 -0.000001 0.193997 -4.125265 31.961221 0.614238 -2.313617 29.732903 0.613915 -2.313068 29.725427 -0.000000 -0.000001 -0.000001 20.570158 3.938205 -1.947078 36.291633 5.177155 -11.896722 -24.585548 24.003940 -21.389287 -38.711173 0.129308 -3.689039 -0.000000 0.000001 -0.000000 -95.155149 0.734840 -1.470421 49.804834 -10.640372 -0.165373 17.871376 -26.277640 -8.321227 -4.544993 0.000012 -0.000004 -0.000000 0.000000 -0.000000 
3.113211 63.546432 4.929569 26.956626 16.811903 -5.111102 13.419885 -15.310743 16.335955 2.667868 -3.797336 2.249519 2.567225 -3.934125 2.403113 -0.654445 2.360091 -4.707300 -8.978153 8.649300 -7.568671 0.000003 -0.000000 -0.000000 2.303183 -14.438475 0.632701 -34.581524 -49.190835 -13.602701 -0.000005 -95.657762 0.000003 31.749694 -18.373480 23.795213 -12.219658 -22.730212 -1.966697 9.717193 40.898606 4.873970 -9.130454 -8.902194 12.287391 -0.000000 -0.000000 0.000004 0.440149 4.478010 -13.270811 0.253845 1.707443 -16.911147 0.253718 1.707028 -16.906929 -0.000000 0.000000 -0.000001 0.878524 5.340209 -31.738574 0.979413 3.244590 -33.586287 0.992859 3.264716 -33.823128 -0.000000 0.000001 -0.000000 2.548188 7.345279 -42.232094 1.409657 3.812873 -40.567840 1.504699 3.920912 -41.977079 -0.000000 0.000000 0.000000 3.994266 8.630310 -51.855981 2.025729 4.430687 -49.123042 2.025106 4.430143 -49.115043 -0.000001 -0.000001 0.000001 0.768507 5.632523 17.014083 -11.617416 -27.383253 37.920435 -0.000001 15.106611 -0.000005 6.101192 5.303622 -22.569616 -5.638026 8.312839 -2.785800 8.213443 -28.414038 -1.871586 -7.622857 7.876667 -10.364591 -0.000002 0.000003 -0.000002 -1.584525 6.260314 10.902026 0.214310 -1.397896 17.431082 0.224463 -1.429852 17.842863 0.000000 -0.000002 -0.000000 -1.250926 1.148013 17.598157 0.320403 -1.699203 21.355807 0.340911 -1.750691 22.036676 -0.000000 -0.000001 -0.000001 -0.035298 -3.136863 25.015141 0.399920 -1.889886 23.894478 0.452075 -2.003428 25.429918 -0.000002 -0.000001 0.000001 0.288537 -4.413570 31.713798 0.610021 -2.306213 29.628343 0.609729 -2.305705 29.621127 0.000003 0.000002 -0.000002 17.019097 3.334946 -0.305607 37.958155 5.228280 -11.847738 -14.942060 23.755179 -26.511412 -40.056710 0.869484 -10.020780 -0.000001 -0.000002 -0.000000 -98.321960 0.072536 -0.797620 51.957205 -10.296135 -0.099759 16.415432 -26.098513 -6.971684 -4.616756 -0.000013 -0.000009 -0.000000 0.000000 0.000000 
